<mxfile host="app.diagrams.net" agent="Mozilla/5.0 (Windows NT 10.0; Win64; x64) AppleWebKit/537.36 (KHTML, like Gecko) Chrome/130.0.0.0 Safari/537.36" version="24.8.3">
  <diagram name="Страница — 1" id="CFaG_BACzUibLaljeHuV">
    <mxGraphModel dx="1938" dy="2260" grid="1" gridSize="10" guides="1" tooltips="1" connect="1" arrows="1" fold="1" page="1" pageScale="1" pageWidth="827" pageHeight="1169" math="0" shadow="0">
      <root>
        <mxCell id="0" />
        <mxCell id="1" parent="0" />
        <mxCell id="ybld0UvMamJYZgag9wiC-3" style="edgeStyle=orthogonalEdgeStyle;rounded=0;orthogonalLoop=1;jettySize=auto;html=1;" edge="1" parent="1" source="ybld0UvMamJYZgag9wiC-1">
          <mxGeometry relative="1" as="geometry">
            <mxPoint x="414" y="-1110" as="targetPoint" />
          </mxGeometry>
        </mxCell>
        <mxCell id="ybld0UvMamJYZgag9wiC-1" value="Начало" style="rounded=1;whiteSpace=wrap;html=1;arcSize=50;fontFamily=Times New Roman;fontStyle=1;labelBackgroundColor=none;fontColor=default;labelBorderColor=none;fontSize=14;spacing=8;" vertex="1" parent="1">
          <mxGeometry x="359" y="-1169" width="110" height="30" as="geometry" />
        </mxCell>
        <mxCell id="ybld0UvMamJYZgag9wiC-2" value="Конец" style="rounded=1;whiteSpace=wrap;html=1;arcSize=50;fontFamily=Times New Roman;fontStyle=1;labelBackgroundColor=none;fontColor=default;labelBorderColor=none;fontSize=14;spacing=8;" vertex="1" parent="1">
          <mxGeometry x="605" y="-225" width="110" height="30" as="geometry" />
        </mxCell>
        <mxCell id="ybld0UvMamJYZgag9wiC-7" style="edgeStyle=orthogonalEdgeStyle;rounded=0;orthogonalLoop=1;jettySize=auto;html=1;entryX=0.5;entryY=0;entryDx=0;entryDy=0;" edge="1" parent="1" source="ybld0UvMamJYZgag9wiC-5" target="ybld0UvMamJYZgag9wiC-9">
          <mxGeometry relative="1" as="geometry">
            <mxPoint x="414" y="-1050" as="targetPoint" />
          </mxGeometry>
        </mxCell>
        <mxCell id="ybld0UvMamJYZgag9wiC-5" value="yes&lt;div&gt;ost = yes % 4&lt;/div&gt;" style="shape=parallelogram;perimeter=parallelogramPerimeter;whiteSpace=wrap;html=1;fixedSize=1;" vertex="1" parent="1">
          <mxGeometry x="354" y="-1110" width="120" height="40" as="geometry" />
        </mxCell>
        <mxCell id="ybld0UvMamJYZgag9wiC-12" style="edgeStyle=orthogonalEdgeStyle;rounded=0;orthogonalLoop=1;jettySize=auto;html=1;entryX=0.5;entryY=0;entryDx=0;entryDy=0;" edge="1" parent="1" source="ybld0UvMamJYZgag9wiC-9" target="ybld0UvMamJYZgag9wiC-16">
          <mxGeometry relative="1" as="geometry">
            <mxPoint x="640" y="-930" as="targetPoint" />
          </mxGeometry>
        </mxCell>
        <mxCell id="ybld0UvMamJYZgag9wiC-13" style="edgeStyle=orthogonalEdgeStyle;rounded=0;orthogonalLoop=1;jettySize=auto;html=1;" edge="1" parent="1" source="ybld0UvMamJYZgag9wiC-9">
          <mxGeometry relative="1" as="geometry">
            <mxPoint x="413.9999999999999" y="-890" as="targetPoint" />
          </mxGeometry>
        </mxCell>
        <mxCell id="ybld0UvMamJYZgag9wiC-9" value="yes%4 == 0 &amp;amp;&amp;amp; yes%100 != 0" style="rhombus;whiteSpace=wrap;html=1;" vertex="1" parent="1">
          <mxGeometry x="307" y="-1040" width="214" height="100" as="geometry" />
        </mxCell>
        <mxCell id="ybld0UvMamJYZgag9wiC-14" value="Нет, не високосный" style="text;html=1;align=center;verticalAlign=middle;resizable=0;points=[];autosize=1;strokeColor=none;fillColor=none;" vertex="1" parent="1">
          <mxGeometry x="521" y="-1020" width="130" height="30" as="geometry" />
        </mxCell>
        <mxCell id="ybld0UvMamJYZgag9wiC-15" value="Да,&lt;div&gt;&amp;nbsp;високосный&lt;/div&gt;" style="text;html=1;align=center;verticalAlign=middle;resizable=0;points=[];autosize=1;strokeColor=none;fillColor=none;" vertex="1" parent="1">
          <mxGeometry x="324" y="-940" width="90" height="40" as="geometry" />
        </mxCell>
        <mxCell id="ybld0UvMamJYZgag9wiC-16" value="yes" style="shape=parallelogram;perimeter=parallelogramPerimeter;whiteSpace=wrap;html=1;fixedSize=1;" vertex="1" parent="1">
          <mxGeometry x="590" y="-922" width="80" height="32" as="geometry" />
        </mxCell>
        <mxCell id="ybld0UvMamJYZgag9wiC-19" style="edgeStyle=orthogonalEdgeStyle;rounded=0;orthogonalLoop=1;jettySize=auto;html=1;" edge="1" parent="1" source="ybld0UvMamJYZgag9wiC-18" target="ybld0UvMamJYZgag9wiC-20">
          <mxGeometry relative="1" as="geometry">
            <mxPoint x="414" y="-810" as="targetPoint" />
          </mxGeometry>
        </mxCell>
        <mxCell id="ybld0UvMamJYZgag9wiC-18" value="yes" style="shape=parallelogram;perimeter=parallelogramPerimeter;whiteSpace=wrap;html=1;fixedSize=1;" vertex="1" parent="1">
          <mxGeometry x="376" y="-890" width="76" height="32" as="geometry" />
        </mxCell>
        <mxCell id="ybld0UvMamJYZgag9wiC-23" style="edgeStyle=orthogonalEdgeStyle;rounded=0;orthogonalLoop=1;jettySize=auto;html=1;entryX=0.5;entryY=0;entryDx=0;entryDy=0;" edge="1" parent="1" source="ybld0UvMamJYZgag9wiC-20" target="ybld0UvMamJYZgag9wiC-22">
          <mxGeometry relative="1" as="geometry" />
        </mxCell>
        <mxCell id="ybld0UvMamJYZgag9wiC-20" value="x, y" style="shape=parallelogram;perimeter=parallelogramPerimeter;whiteSpace=wrap;html=1;fixedSize=1;" vertex="1" parent="1">
          <mxGeometry x="371" y="-820" width="86" height="30" as="geometry" />
        </mxCell>
        <mxCell id="ybld0UvMamJYZgag9wiC-25" style="edgeStyle=orthogonalEdgeStyle;rounded=0;orthogonalLoop=1;jettySize=auto;html=1;entryX=0.5;entryY=0;entryDx=0;entryDy=0;" edge="1" parent="1" source="ybld0UvMamJYZgag9wiC-22" target="ybld0UvMamJYZgag9wiC-24">
          <mxGeometry relative="1" as="geometry" />
        </mxCell>
        <mxCell id="ybld0UvMamJYZgag9wiC-22" value="y = x &amp;lt;= 1 ? 0 : 1 / (x + 6)" style="rounded=0;whiteSpace=wrap;html=1;" vertex="1" parent="1">
          <mxGeometry x="336" y="-750" width="156" height="40" as="geometry" />
        </mxCell>
        <mxCell id="ybld0UvMamJYZgag9wiC-26" style="edgeStyle=orthogonalEdgeStyle;rounded=0;orthogonalLoop=1;jettySize=auto;html=1;" edge="1" parent="1" source="ybld0UvMamJYZgag9wiC-24">
          <mxGeometry relative="1" as="geometry">
            <mxPoint x="413.5" y="-600" as="targetPoint" />
          </mxGeometry>
        </mxCell>
        <mxCell id="ybld0UvMamJYZgag9wiC-24" value="y" style="shape=parallelogram;perimeter=parallelogramPerimeter;whiteSpace=wrap;html=1;fixedSize=1;" vertex="1" parent="1">
          <mxGeometry x="384" y="-670" width="59" height="30" as="geometry" />
        </mxCell>
        <mxCell id="ybld0UvMamJYZgag9wiC-28" style="edgeStyle=orthogonalEdgeStyle;rounded=0;orthogonalLoop=1;jettySize=auto;html=1;" edge="1" parent="1" source="ybld0UvMamJYZgag9wiC-27" target="ybld0UvMamJYZgag9wiC-29">
          <mxGeometry relative="1" as="geometry">
            <mxPoint x="413.5" y="-510" as="targetPoint" />
          </mxGeometry>
        </mxCell>
        <mxCell id="ybld0UvMamJYZgag9wiC-27" value="xw, yw, p, t, o" style="shape=parallelogram;perimeter=parallelogramPerimeter;whiteSpace=wrap;html=1;fixedSize=1;" vertex="1" parent="1">
          <mxGeometry x="358" y="-600" width="111" height="40" as="geometry" />
        </mxCell>
        <mxCell id="ybld0UvMamJYZgag9wiC-30" style="edgeStyle=orthogonalEdgeStyle;rounded=0;orthogonalLoop=1;jettySize=auto;html=1;entryX=0.5;entryY=0;entryDx=0;entryDy=0;" edge="1" parent="1" source="ybld0UvMamJYZgag9wiC-29" target="ybld0UvMamJYZgag9wiC-42">
          <mxGeometry relative="1" as="geometry">
            <mxPoint x="586" y="-470" as="targetPoint" />
          </mxGeometry>
        </mxCell>
        <mxCell id="ybld0UvMamJYZgag9wiC-51" value="" style="edgeStyle=orthogonalEdgeStyle;rounded=0;orthogonalLoop=1;jettySize=auto;html=1;fontSize=12;startSize=8;endSize=8;" edge="1" parent="1" source="ybld0UvMamJYZgag9wiC-29" target="ybld0UvMamJYZgag9wiC-50">
          <mxGeometry relative="1" as="geometry" />
        </mxCell>
        <mxCell id="ybld0UvMamJYZgag9wiC-29" value="yw!=60" style="rhombus;whiteSpace=wrap;html=1;" vertex="1" parent="1">
          <mxGeometry x="364.5" y="-520" width="99" height="40" as="geometry" />
        </mxCell>
        <mxCell id="ybld0UvMamJYZgag9wiC-37" style="edgeStyle=none;curved=1;rounded=0;orthogonalLoop=1;jettySize=auto;html=1;fontSize=12;startSize=8;endSize=8;entryX=0.5;entryY=0;entryDx=0;entryDy=0;" edge="1" parent="1" source="ybld0UvMamJYZgag9wiC-36" target="ybld0UvMamJYZgag9wiC-39">
          <mxGeometry relative="1" as="geometry">
            <mxPoint x="414" y="-230" as="targetPoint" />
          </mxGeometry>
        </mxCell>
        <mxCell id="ybld0UvMamJYZgag9wiC-36" value="yw == 60" style="rhombus;whiteSpace=wrap;html=1;" vertex="1" parent="1">
          <mxGeometry x="365" y="-360" width="98" height="80" as="geometry" />
        </mxCell>
        <mxCell id="ybld0UvMamJYZgag9wiC-38" value="xw += 1" style="rounded=0;whiteSpace=wrap;html=1;" vertex="1" parent="1">
          <mxGeometry x="367" y="-60" width="96" height="30" as="geometry" />
        </mxCell>
        <mxCell id="ybld0UvMamJYZgag9wiC-41" style="edgeStyle=none;curved=1;rounded=0;orthogonalLoop=1;jettySize=auto;html=1;fontSize=12;startSize=8;endSize=8;" edge="1" parent="1" source="ybld0UvMamJYZgag9wiC-39">
          <mxGeometry relative="1" as="geometry">
            <mxPoint x="413.75" y="-130" as="targetPoint" />
          </mxGeometry>
        </mxCell>
        <mxCell id="ybld0UvMamJYZgag9wiC-39" value="xw == 12 || xw==0" style="rhombus;whiteSpace=wrap;html=1;" vertex="1" parent="1">
          <mxGeometry x="333.94" y="-250" width="160.12" height="80" as="geometry" />
        </mxCell>
        <mxCell id="ybld0UvMamJYZgag9wiC-43" style="edgeStyle=none;curved=1;rounded=0;orthogonalLoop=1;jettySize=auto;html=1;fontSize=12;startSize=8;endSize=8;" edge="1" parent="1" source="ybld0UvMamJYZgag9wiC-42">
          <mxGeometry relative="1" as="geometry">
            <mxPoint x="413.75" y="-360" as="targetPoint" />
          </mxGeometry>
        </mxCell>
        <mxCell id="ybld0UvMamJYZgag9wiC-42" value="&#xa;&lt;div style=&quot;forced-color-adjust: none; color: rgb(0, 0, 0); font-family: Helvetica; font-size: 12px; font-style: normal; font-variant-ligatures: normal; font-variant-caps: normal; font-weight: 400; letter-spacing: normal; orphans: 2; text-align: center; text-indent: 0px; text-transform: none; widows: 2; word-spacing: 0px; -webkit-text-stroke-width: 0px; white-space: normal; background-color: rgb(251, 251, 251); text-decoration-thickness: initial; text-decoration-style: initial; text-decoration-color: initial;&quot;&gt;&lt;span style=&quot;forced-color-adjust: none; font-size: 12px;&quot;&gt;p = 60 - yw&lt;/span&gt;&lt;/div&gt;&lt;div style=&quot;forced-color-adjust: none; color: rgb(0, 0, 0); font-family: Helvetica; font-size: 12px; font-style: normal; font-variant-ligatures: normal; font-variant-caps: normal; font-weight: 400; letter-spacing: normal; orphans: 2; text-align: center; text-indent: 0px; text-transform: none; widows: 2; word-spacing: 0px; -webkit-text-stroke-width: 0px; white-space: normal; background-color: rgb(251, 251, 251); text-decoration-thickness: initial; text-decoration-style: initial; text-decoration-color: initial;&quot;&gt;&lt;span style=&quot;forced-color-adjust: none; font-size: 12px;&quot;&gt;t = xw * 5&lt;/span&gt;&lt;/div&gt;&lt;div style=&quot;forced-color-adjust: none; color: rgb(0, 0, 0); font-family: Helvetica; font-size: 12px; font-style: normal; font-variant-ligatures: normal; font-variant-caps: normal; font-weight: 400; letter-spacing: normal; orphans: 2; text-align: center; text-indent: 0px; text-transform: none; widows: 2; word-spacing: 0px; -webkit-text-stroke-width: 0px; white-space: normal; background-color: rgb(251, 251, 251); text-decoration-thickness: initial; text-decoration-style: initial; text-decoration-color: initial;&quot;&gt;&lt;span style=&quot;forced-color-adjust: none; font-size: 12px;&quot;&gt;yw = 60&lt;/span&gt;&lt;/div&gt;&#xa;&#xa;" style="rounded=0;whiteSpace=wrap;html=1;" vertex="1" parent="1">
          <mxGeometry x="353.75" y="-450" width="120" height="60" as="geometry" />
        </mxCell>
        <mxCell id="ybld0UvMamJYZgag9wiC-48" style="edgeStyle=none;curved=1;rounded=0;orthogonalLoop=1;jettySize=auto;html=1;entryX=0.5;entryY=0;entryDx=0;entryDy=0;fontSize=12;startSize=8;endSize=8;" edge="1" parent="1" source="ybld0UvMamJYZgag9wiC-45" target="ybld0UvMamJYZgag9wiC-38">
          <mxGeometry relative="1" as="geometry" />
        </mxCell>
        <mxCell id="ybld0UvMamJYZgag9wiC-45" value="&lt;div style=&quot;text-align: start;&quot;&gt;&lt;div&gt;p += 5&lt;/div&gt;&lt;div&gt;o += 1&lt;/div&gt;&lt;/div&gt;" style="rounded=0;whiteSpace=wrap;html=1;" vertex="1" parent="1">
          <mxGeometry x="367" y="-130" width="96" height="40" as="geometry" />
        </mxCell>
        <mxCell id="ybld0UvMamJYZgag9wiC-53" style="edgeStyle=none;curved=1;rounded=0;orthogonalLoop=1;jettySize=auto;html=1;fontSize=12;startSize=8;endSize=8;" edge="1" parent="1" source="ybld0UvMamJYZgag9wiC-50">
          <mxGeometry relative="1" as="geometry">
            <mxPoint x="550" y="-370" as="targetPoint" />
          </mxGeometry>
        </mxCell>
        <mxCell id="ybld0UvMamJYZgag9wiC-55" style="edgeStyle=orthogonalEdgeStyle;rounded=0;orthogonalLoop=1;jettySize=auto;html=1;fontSize=12;startSize=8;endSize=8;entryX=0.5;entryY=0;entryDx=0;entryDy=0;" edge="1" parent="1" source="ybld0UvMamJYZgag9wiC-50" target="ybld0UvMamJYZgag9wiC-52">
          <mxGeometry relative="1" as="geometry">
            <mxPoint x="680" y="-360" as="targetPoint" />
          </mxGeometry>
        </mxCell>
        <mxCell id="ybld0UvMamJYZgag9wiC-50" value="o == 1" style="rhombus;whiteSpace=wrap;html=1;" vertex="1" parent="1">
          <mxGeometry x="510" y="-450" width="80" height="40" as="geometry" />
        </mxCell>
        <mxCell id="ybld0UvMamJYZgag9wiC-56" style="edgeStyle=none;curved=1;rounded=0;orthogonalLoop=1;jettySize=auto;html=1;fontSize=12;startSize=8;endSize=8;" edge="1" parent="1" source="ybld0UvMamJYZgag9wiC-52">
          <mxGeometry relative="1" as="geometry">
            <mxPoint x="660" y="-290" as="targetPoint" />
          </mxGeometry>
        </mxCell>
        <mxCell id="ybld0UvMamJYZgag9wiC-52" value="o == 1" style="rhombus;whiteSpace=wrap;html=1;" vertex="1" parent="1">
          <mxGeometry x="620" y="-370" width="80" height="40" as="geometry" />
        </mxCell>
        <mxCell id="ybld0UvMamJYZgag9wiC-54" value="p" style="shape=parallelogram;perimeter=parallelogramPerimeter;whiteSpace=wrap;html=1;fixedSize=1;" vertex="1" parent="1">
          <mxGeometry x="510" y="-370" width="80" height="30" as="geometry" />
        </mxCell>
        <mxCell id="ybld0UvMamJYZgag9wiC-61" style="edgeStyle=none;curved=1;rounded=0;orthogonalLoop=1;jettySize=auto;html=1;entryX=0.5;entryY=0;entryDx=0;entryDy=0;fontSize=12;startSize=8;endSize=8;" edge="1" parent="1" source="ybld0UvMamJYZgag9wiC-58" target="ybld0UvMamJYZgag9wiC-2">
          <mxGeometry relative="1" as="geometry" />
        </mxCell>
        <mxCell id="ybld0UvMamJYZgag9wiC-58" value="t + p" style="shape=parallelogram;perimeter=parallelogramPerimeter;whiteSpace=wrap;html=1;fixedSize=1;" vertex="1" parent="1">
          <mxGeometry x="620" y="-290" width="80" height="30" as="geometry" />
        </mxCell>
      </root>
    </mxGraphModel>
  </diagram>
</mxfile>
